<?xml version="1.0" encoding="iso-8859-1"?>
<!-- Generator: Adobe Illustrator 19.0.0, SVG Export Plug-In . SVG Version: 6.00 Build 0)  -->
<svg xmlns="http://www.w3.org/2000/svg" xmlns:xlink="http://www.w3.org/1999/xlink" version="1.1" id="Capa_1" x="0px" y="0px" viewBox="0 0 460 460" style="enable-background:new 0 0 460 460;" xml:space="preserve" width="512" height="512">
<g id="XMLID_1291_">
	<path id="XMLID_1124_" style="fill:#89693E;" d="M245,430h-30v-50h30V430z"/>
	<path id="XMLID_840_" style="fill:#554222;" d="M245,390l-30-10v-20h30V390z"/>
	<path id="XMLID_1277_" style="fill:#844E30;" d="M250,150h-40V20c0-11.046,8.954-20,20-20h0c11.046,0,20,8.954,20,20V150z"/>
	<path id="XMLID_2086_" style="fill:#D1B262;" d="M350,350L350,350c0,16.568-13.431,30-30,30H140c-16.569,0-30-13.432-30-30l0,0   c0-16.568,13.431-30,30-30l0,0l20.136-120.816c4.002-24.011,19.804-43.499,40.863-52.964C200.358,144.26,200,142.173,200,140l0,0   c0-11.046,8.954-20,20-20h20c11.046,0,20,8.954,20,20l0,0c0,2.173-0.358,4.26-0.999,6.22c21.059,9.465,36.861,28.953,40.863,52.964   L320,320l0,0C336.569,320,350,333.432,350,350z M230,400c-16.569,0-30,13.432-30,30s13.431,30,30,30s30-13.432,30-30   S246.569,400,230,400z"/>
	<path id="XMLID_85_" style="fill:#E9CC85;" d="M220,450c-5.523,0-10-4.477-10-10s4.477-10,10-10s10,4.477,10,10   S225.523,450,220,450z M240,130v-10h-20v10c0,5.523,4.477,10,10,10h0C235.523,140,240,135.523,240,130z M310,335L310,335   c0-8.284-6.716-15-15-15H165c-8.284,0-15,6.716-15,15l0,0c0,8.284,6.716,15,15,15h130C303.284,350,310,343.284,310,335z    M269.118,310l-11.92-135.097C255.954,160.809,244.149,150,230,150s-25.954,10.809-27.197,24.903L190.882,310H269.118z"/>
</g>















</svg>
