<?xml version="1.0" encoding="iso-8859-1"?>
<!-- Generator: Adobe Illustrator 16.0.0, SVG Export Plug-In . SVG Version: 6.00 Build 0)  -->
<!DOCTYPE svg PUBLIC "-//W3C//DTD SVG 1.1//EN" "http://www.w3.org/Graphics/SVG/1.1/DTD/svg11.dtd">
<svg version="1.1" id="Capa_1" xmlns="http://www.w3.org/2000/svg" xmlns:xlink="http://www.w3.org/1999/xlink" x="0px" y="0px"
	 width="66.824px" height="66.824px" viewBox="0 0 66.824 66.824" style="enable-background:new 0 0 66.824 66.824;"
	 xml:space="preserve">
<g>
	<path d="M65.66,12.408H33.755v-0.002L5.726,3.887C5.368,3.778,4.987,3.843,4.691,4.065c-0.296,0.219-0.472,0.57-0.472,0.936v7.407
		H1.168C0.526,12.408,0,12.934,0,13.576v41.286c0,0.644,0.526,1.168,1.168,1.168h24.216v4.624h-4.429v1.168v1.167h24.912v-1.167
		v-1.168H41.44V56.03h24.216c0.641,0,1.168-0.524,1.168-1.168V13.576C66.828,12.93,66.306,12.408,65.66,12.408z M6.552,12.408V6.578
		l19.179,5.831l3.845,1.168l2.672,0.813v0.355v38.489L6.555,45.423V14.744v-1.168L6.552,12.408L6.552,12.408z M64.492,53.696h-29.91
		V14.744h4.588v4.333l2.274-1.438l2.274,1.438v-4.333h20.78v38.95h-0.007V53.696z M28.288,21.885l-9.101-2.77v-1.538l9.101,2.774
		V21.885z M28.288,27.749l-9.101-2.771v-1.542l9.101,2.772V27.749z M28.288,33.66l-18.209-5.539v-1.534l18.209,5.536V33.66z
		 M28.288,39.518l-18.209-5.535v-1.54l18.209,5.535V39.518z M28.288,45.435l-18.209-5.538v-1.538l18.209,5.534V45.435z
		 M11.637,23.135l0.472-1.546l2.743,0.832l0.488,1.838l0.798,0.243l0.804,0.243l-2.556-9.089l-0.876-0.264l-0.876-0.264
		l-2.556,7.533l0.786,0.241L11.637,23.135z M13.492,17.242l0.953,3.627l-1.915-0.582L13.492,17.242z M44.851,27.358
		c0-1.314,0.89-1.792,1.984-1.054l8.576,5.779c1.091,0.731,1.091,1.931,0,2.662l-8.576,5.78c-1.095,0.735-1.984,0.256-1.984-1.054
		V27.358z"/>
</g>
<g>
</g>
<g>
</g>
<g>
</g>
<g>
</g>
<g>
</g>
<g>
</g>
<g>
</g>
<g>
</g>
<g>
</g>
<g>
</g>
<g>
</g>
<g>
</g>
<g>
</g>
<g>
</g>
<g>
</g>
</svg>
