<?xml version="1.0" encoding="iso-8859-1"?>
<!-- Generator: Adobe Illustrator 19.0.0, SVG Export Plug-In . SVG Version: 6.00 Build 0)  -->
<svg version="1.1" id="Capa_1" xmlns="http://www.w3.org/2000/svg" xmlns:xlink="http://www.w3.org/1999/xlink" x="0px" y="0px"
	 viewBox="0 0 489.4 489.4" style="enable-background:new 0 0 489.4 489.4;" xml:space="preserve">
<g>
	<g>
		<g>
			<path d="M165.3,427.1c30.6,0,55.1-24.5,55.1-55.1c0-0.1,0-92.9,0-153.1l105.1-31.6v80.5c-4.6-1.2-9.3-1.9-14.3-1.9
				c-30.6,0-55.1,24.5-55.1,55.1s24.5,55.1,55.1,55.1c28.1,0,51-20.6,54.6-47.6c0.3-1.5,0.5-168.9,0.5-168.9c0-6.1-5-23.8-26.5-19.4
				l-146,43.9c-8.2,3.1-14.3,10.2-14.3,19.4c-0.3,53.9-0.5,90.3-0.5,115c-4.4-1.1-9.1-1.7-13.8-1.7c-30.6,0-55.1,24.5-55.1,55.1
				S134.7,427.1,165.3,427.1z M325.6,322c0,8.2-6.1,14.3-14.3,14.3c-8.2,0-14.3-7.1-14.3-14.3c0-8.2,6.1-14.3,14.3-14.3
				C319.4,307.7,325.6,313.8,325.6,322L325.6,322z M165.3,358.7c6.9,0,13.1,4.4,14.2,10.7c0.1,1.7,0.1,2.1,0.1,2.5
				c0,0.1,0,0.1,0.1,0.2c0,0.3,0,0.5-0.1,0.8c0,8.2-6.1,14.3-14.3,14.3s-14.3-7.1-14.3-14.3C151,364.9,157.1,358.7,165.3,358.7z"/>
			<path d="M453,104c0.6-10-7.1-17-10.5-20.4c-9.6-8.3-23.2-28.9,3.1-47.9c7.1-5.1,9.2-14.3,6.1-22.4C448.6,5.1,440.5,0,432.3,0
				H98.9C64.2,0,35.7,27.5,35.7,62.2c0,0.2,0,349.7,0,349.7c0,42.8,34.7,77.5,78.5,77.5h319.1c11.2,0,20.4-9.2,20.4-20.4
				C453.7,469,453.4,105.6,453,104z M98.9,40.8h293.7c-10.4,11.8-8.8,32.9,0,42.8H98.9c-12.2,0-22.4-9.2-22.4-21.4
				C76.4,49.9,86.6,40.8,98.9,40.8z M412.9,448.6H114.2c-20.4,0-37.7-16.3-37.7-36.7V120.2c7,2.7,14.5,4.2,22.4,4.2h314V448.6z"/>
		</g>
	</g>
</g>
<g>
</g>
<g>
</g>
<g>
</g>
<g>
</g>
<g>
</g>
<g>
</g>
<g>
</g>
<g>
</g>
<g>
</g>
<g>
</g>
<g>
</g>
<g>
</g>
<g>
</g>
<g>
</g>
<g>
</g>
</svg>
