<?xml version="1.0" encoding="iso-8859-1"?>
<!-- Generator: Adobe Illustrator 19.0.0, SVG Export Plug-In . SVG Version: 6.00 Build 0)  -->
<svg xmlns="http://www.w3.org/2000/svg" xmlns:xlink="http://www.w3.org/1999/xlink" version="1.1" id="Capa_1" x="0px" y="0px" viewBox="0 0 460 460" style="enable-background:new 0 0 460 460;" xml:space="preserve" width="512" height="512">
<g id="XMLID_2070_">
	<path id="XMLID_2069_" style="fill:#FBE375;" d="M350,30h80c5.523,0,10,4.477,10,10v50c0,5.523-4.477,10-10,10h-80V30z"/>
	<path id="XMLID_2068_" style="fill:#C9A252;" d="M330,30h90v70h-90V30z"/>
	<path id="XMLID_2067_" style="fill:#A79A87;" d="M390,460H60c-11.046,0-20-8.954-20-20V20C40,8.954,48.954,0,60,0h330   c11.046,0,20,8.954,20,20v420C410,451.046,401.046,460,390,460z"/>
	<path id="XMLID_2066_" style="fill:#635D51;" d="M290,410L290,410c0-5.523,4.477-10,10-10h60c5.523,0,10,4.477,10,10l0,0   c0,5.523-4.477,10-10,10h-60C294.477,420,290,415.523,290,410z M360,60L360,60c5.523,0,10-4.477,10-10v0c0-5.523-4.477-10-10-10   l0,0c-5.523,0-10,4.477-10,10v0C350,55.523,354.477,60,360,60z M310,60L310,60c5.523,0,10-4.477,10-10v0c0-5.523-4.477-10-10-10   l0,0c-5.523,0-10,4.477-10,10v0C300,55.523,304.477,60,310,60z M260,60L260,60c5.523,0,10-4.477,10-10v0c0-5.523-4.477-10-10-10   l0,0c-5.523,0-10,4.477-10,10v0C250,55.523,254.477,60,260,60z M210,60L210,60c5.523,0,10-4.477,10-10v0c0-5.523-4.477-10-10-10h0   c-5.523,0-10,4.477-10,10v0C200,55.523,204.477,60,210,60z M160,60L160,60c5.523,0,10-4.477,10-10v0c0-5.523-4.477-10-10-10h0   c-5.523,0-10,4.477-10,10v0C150,55.523,154.477,60,160,60z M360,110L360,110c5.523,0,10-4.477,10-10v0c0-5.523-4.477-10-10-10l0,0   c-5.523,0-10,4.477-10,10v0C350,105.523,354.477,110,360,110z M310,110L310,110c5.523,0,10-4.477,10-10v0c0-5.523-4.477-10-10-10   l0,0c-5.523,0-10,4.477-10,10v0C300,105.523,304.477,110,310,110z M260,110L260,110c5.523,0,10-4.477,10-10v0   c0-5.523-4.477-10-10-10l0,0c-5.523,0-10,4.477-10,10v0C250,105.523,254.477,110,260,110z M210,110L210,110c5.523,0,10-4.477,10-10   v0c0-5.523-4.477-10-10-10h0c-5.523,0-10,4.477-10,10v0C200,105.523,204.477,110,210,110z M160,110L160,110c5.523,0,10-4.477,10-10   v0c0-5.523-4.477-10-10-10h0c-5.523,0-10,4.477-10,10v0C150,105.523,154.477,110,160,110z M360,160L360,160c5.523,0,10-4.477,10-10   v0c0-5.523-4.477-10-10-10l0,0c-5.523,0-10,4.477-10,10v0C350,155.523,354.477,160,360,160z M310,160L310,160   c5.523,0,10-4.477,10-10v0c0-5.523-4.477-10-10-10l0,0c-5.523,0-10,4.477-10,10v0C300,155.523,304.477,160,310,160z M260,160   L260,160c5.523,0,10-4.477,10-10v0c0-5.523-4.477-10-10-10l0,0c-5.523,0-10,4.477-10,10v0C250,155.523,254.477,160,260,160z    M210,160L210,160c5.523,0,10-4.477,10-10v0c0-5.523-4.477-10-10-10h0c-5.523,0-10,4.477-10,10v0C200,155.523,204.477,160,210,160z    M160,160L160,160c5.523,0,10-4.477,10-10v0c0-5.523-4.477-10-10-10h0c-5.523,0-10,4.477-10,10v0C150,155.523,154.477,160,160,160z    M360,210L360,210c5.523,0,10-4.477,10-10v0c0-5.523-4.477-10-10-10l0,0c-5.523,0-10,4.477-10,10v0   C350,205.523,354.477,210,360,210z M310,210L310,210c5.523,0,10-4.477,10-10v0c0-5.523-4.477-10-10-10l0,0c-5.523,0-10,4.477-10,10   v0C300,205.523,304.477,210,310,210z M260,210L260,210c5.523,0,10-4.477,10-10v0c0-5.523-4.477-10-10-10l0,0   c-5.523,0-10,4.477-10,10v0C250,205.523,254.477,210,260,210z M210,210L210,210c5.523,0,10-4.477,10-10v0c0-5.523-4.477-10-10-10h0   c-5.523,0-10,4.477-10,10v0C200,205.523,204.477,210,210,210z M160,210L160,210c5.523,0,10-4.477,10-10v0c0-5.523-4.477-10-10-10h0   c-5.523,0-10,4.477-10,10v0C150,205.523,154.477,210,160,210z M360,260L360,260c5.523,0,10-4.477,10-10v0c0-5.523-4.477-10-10-10   l0,0c-5.523,0-10,4.477-10,10v0C350,255.523,354.477,260,360,260z M310,260L310,260c5.523,0,10-4.477,10-10v0   c0-5.523-4.477-10-10-10l0,0c-5.523,0-10,4.477-10,10v0C300,255.523,304.477,260,310,260z M260,260L260,260c5.523,0,10-4.477,10-10   v0c0-5.523-4.477-10-10-10l0,0c-5.523,0-10,4.477-10,10v0C250,255.523,254.477,260,260,260z M210,260L210,260   c5.523,0,10-4.477,10-10v0c0-5.523-4.477-10-10-10h0c-5.523,0-10,4.477-10,10v0C200,255.523,204.477,260,210,260z M160,260L160,260   c5.523,0,10-4.477,10-10v0c0-5.523-4.477-10-10-10h0c-5.523,0-10,4.477-10,10v0C150,255.523,154.477,260,160,260z M360,310L360,310   c5.523,0,10-4.477,10-10l0,0c0-5.523-4.477-10-10-10l0,0c-5.523,0-10,4.477-10,10l0,0C350,305.523,354.477,310,360,310z M310,310   L310,310c5.523,0,10-4.477,10-10l0,0c0-5.523-4.477-10-10-10l0,0c-5.523,0-10,4.477-10,10l0,0C300,305.523,304.477,310,310,310z    M260,310L260,310c5.523,0,10-4.477,10-10l0,0c0-5.523-4.477-10-10-10l0,0c-5.523,0-10,4.477-10,10l0,0   C250,305.523,254.477,310,260,310z M210,310L210,310c5.523,0,10-4.477,10-10l0,0c0-5.523-4.477-10-10-10h0c-5.523,0-10,4.477-10,10   l0,0C200,305.523,204.477,310,210,310z M160,310L160,310c5.523,0,10-4.477,10-10l0,0c0-5.523-4.477-10-10-10h0   c-5.523,0-10,4.477-10,10l0,0C150,305.523,154.477,310,160,310z"/>
	<path id="XMLID_14_" style="fill:#968B79;" d="M110,460H60c-11.046,0-20-8.954-20-20V20C40,8.954,48.954,0,60,0h50V460z"/>
	<path id="XMLID_10_" style="fill:#FFFFFF;" d="M85,390L85,390c2.761,0,5,2.239,5,5l0,0c0,2.761-2.239,5-5,5h0c-2.761,0-5-2.239-5-5   l0,0C80,392.239,82.239,390,85,390z M80,65L80,65c0,2.761,2.239,5,5,5h0c2.761,0,5-2.239,5-5v0c0-2.761-2.239-5-5-5h0   C82.239,60,80,62.239,80,65z M80,230L80,230c0,2.761,2.239,5,5,5h0c2.761,0,5-2.239,5-5l0,0c0-2.761-2.239-5-5-5h0   C82.239,225,80,227.239,80,230z"/>
	<path id="XMLID_11_" style="fill:#272525;" d="M55,40H25c-2.761,0-5-2.239-5-5v0c0-2.761,2.239-5,5-5h30c2.761,0,5,2.239,5,5v0   C60,37.761,57.761,40,55,40z M60,65L60,65c0-2.761-2.239-5-5-5H25c-2.761,0-5,2.239-5,5v0c0,2.761,2.239,5,5,5h30   C57.761,70,60,67.761,60,65z M60,95L60,95c0-2.761-2.239-5-5-5H25c-2.761,0-5,2.239-5,5v0c0,2.761,2.239,5,5,5h30   C57.761,100,60,97.761,60,95z M60,125L60,125c0-2.761-2.239-5-5-5H25c-2.761,0-5,2.239-5,5v0c0,2.761,2.239,5,5,5h30   C57.761,130,60,127.761,60,125z M60,155L60,155c0-2.761-2.239-5-5-5H25c-2.761,0-5,2.239-5,5l0,0c0,2.761,2.239,5,5,5h30   C57.761,160,60,157.761,60,155z M60,185L60,185c0-2.761-2.239-5-5-5H25c-2.761,0-5,2.239-5,5l0,0c0,2.761,2.239,5,5,5h30   C57.761,190,60,187.761,60,185z M60,215L60,215c0-2.761-2.239-5-5-5H25c-2.761,0-5,2.239-5,5l0,0c0,2.761,2.239,5,5,5h30   C57.761,220,60,217.761,60,215z M60,245L60,245c0-2.761-2.239-5-5-5H25c-2.761,0-5,2.239-5,5l0,0c0,2.761,2.239,5,5,5h30   C57.761,250,60,247.761,60,245z M60,275L60,275c0-2.761-2.239-5-5-5H25c-2.761,0-5,2.239-5,5l0,0c0,2.761,2.239,5,5,5h30   C57.761,280,60,277.761,60,275z M60,305L60,305c0-2.761-2.239-5-5-5H25c-2.761,0-5,2.239-5,5l0,0c0,2.761,2.239,5,5,5h30   C57.761,310,60,307.761,60,305z M60,335L60,335c0-2.761-2.239-5-5-5H25c-2.761,0-5,2.239-5,5l0,0c0,2.761,2.239,5,5,5h30   C57.761,340,60,337.761,60,335z M60,365L60,365c0-2.761-2.239-5-5-5H25c-2.761,0-5,2.239-5,5l0,0c0,2.761,2.239,5,5,5h30   C57.761,370,60,367.761,60,365z M60,395L60,395c0-2.761-2.239-5-5-5H25c-2.761,0-5,2.239-5,5l0,0c0,2.761,2.239,5,5,5h30   C57.761,400,60,397.761,60,395z M60,425L60,425c0-2.761-2.239-5-5-5H25c-2.761,0-5,2.239-5,5l0,0c0,2.761,2.239,5,5,5h30   C57.761,430,60,427.761,60,425z"/>
</g>















</svg>
